<svg width="24" height="24" viewBox="0 0 24 24" fill="none" xmlns="http://www.w3.org/2000/svg">
<path opacity="0.4" d="M21.08 8.58003V15.42C21.08 16.54 20.48 17.58 19.51 18.15L13.57 21.58C12.6 22.14 11.4 22.14 10.42 21.58L4.47997 18.15C3.50997 17.59 2.90997 16.55 2.90997 15.42V8.58003C2.90997 7.46003 3.50997 6.41999 4.47997 5.84999L10.42 2.42C11.39 1.86 12.59 1.86 13.57 2.42L19.51 5.84999C20.48 6.41999 21.08 7.45003 21.08 8.58003Z" fill="#6171FF"/>
<path d="M15.1429 11.1429H12.8571V8.85714C12.8571 8.38857 12.4686 8 12 8C11.5314 8 11.1429 8.38857 11.1429 8.85714V11.1429H8.85714C8.38857 11.1429 8 11.5314 8 12C8 12.4686 8.38857 12.8571 8.85714 12.8571H11.1429V15.1429C11.1429 15.6114 11.5314 16 12 16C12.4686 16 12.8571 15.6114 12.8571 15.1429V12.8571H15.1429C15.6114 12.8571 16 12.4686 16 12C16 11.5314 15.6114 11.1429 15.1429 11.1429Z" fill="#6171FF"/>
</svg>
