<svg width="24" height="24" viewBox="0 0 24 24" fill="none" xmlns="http://www.w3.org/2000/svg">
<path d="M14.52 18.6301C13.71 18.8401 12.87 18.9401 12 18.9401C8.73 18.9401 5.8 17.4101 3.8 14.9901C2.4 13.3001 2.4 10.6901 3.8 9.01006C3.96 8.81006 4.14 8.62005 4.32 8.43005" stroke="#8B8C8F" stroke-width="1.5" stroke-linecap="round" stroke-linejoin="round"/>
<path d="M20.2 14.9901C19.4 15.9501 18.45 16.7701 17.4 17.4101L6.59003 6.59006C8.18003 5.61006 10.02 5.06006 12 5.06006C15.27 5.06006 18.2 6.59006 20.2 9.01006C21.6 10.6901 21.6 13.3101 20.2 14.9901Z" stroke="#8B8C8F" stroke-width="1.5" stroke-linecap="round" stroke-linejoin="round"/>
<path d="M15.08 12C15.08 12.85 14.73 13.62 14.18 14.18L9.82001 9.82005C10.37 9.26005 11.15 8.92004 12 8.92004C13.71 8.92004 15.08 10.29 15.08 12Z" stroke="#8B8C8F" stroke-width="1.5" stroke-linecap="round" stroke-linejoin="round"/>
<path d="M2.75 2.75L6.59 6.59L9.82 9.82L14.18 14.18L17.41 17.41L21.25 21.25" stroke="#8B8C8F" stroke-width="1.5" stroke-linecap="round" stroke-linejoin="round"/>
</svg>
