<svg width="24" height="24" viewBox="0 0 24 24" fill="none" xmlns="http://www.w3.org/2000/svg">
<path opacity="0.4" d="M12 22C17.5228 22 22 17.5228 22 12C22 6.47715 17.5228 2 12 2C6.47715 2 2 6.47715 2 12C2 17.5228 6.47715 22 12 22Z" fill="#3F8DFD"/>
<path d="M12.33 16.9999C12.15 17.0599 11.84 17.0599 11.66 16.9999C10.1 16.4699 6.60001 14.2399 6.60001 10.4599C6.60001 8.78993 7.94001 7.43994 9.60001 7.43994C10.58 7.43994 11.45 7.90993 12 8.64993C12.54 7.91993 13.42 7.43994 14.4 7.43994C16.06 7.43994 17.4 8.78993 17.4 10.4599C17.4 14.2399 13.9 16.4699 12.33 16.9999Z" fill="#3F8DFD"/>
</svg>
