<svg width="24" height="24" viewBox="0 0 24 24" fill="none" xmlns="http://www.w3.org/2000/svg">
<path d="M6.00333 3.6117V1.20837" stroke="#CED0DE" stroke-width="2" stroke-linecap="round" stroke-linejoin="round"/>
<path d="M17.9967 3.6117V1.20837" stroke="#CED0DE" stroke-width="2" stroke-linecap="round" stroke-linejoin="round"/>
<path d="M19.0583 2.41003H4.94166C2.87666 2.41003 1.20833 4.07836 1.20833 6.14336V19.07C1.20833 21.135 2.87666 22.8034 4.94166 22.8034H19.07C21.135 22.8034 22.8033 21.135 22.8033 19.07V6.14336C22.7917 4.07836 21.1233 2.41003 19.0583 2.41003Z" stroke="#CED0DE" stroke-width="2" stroke-linecap="round" stroke-linejoin="round"/>
<path d="M1.20833 7.21667H22.7917" stroke="#CED0DE" stroke-width="2" stroke-linecap="round" stroke-linejoin="round"/>
<path d="M19 12C19.6443 12 20.1667 11.4776 20.1667 10.8333C20.1667 10.189 19.6443 9.66663 19 9.66663C18.3557 9.66663 17.8333 10.189 17.8333 10.8333C17.8333 11.4776 18.3557 12 19 12Z" fill="#CED0DE"/>
<path d="M14.3333 12C14.9777 12 15.5 11.4776 15.5 10.8333C15.5 10.189 14.9777 9.66663 14.3333 9.66663C13.689 9.66663 13.1667 10.189 13.1667 10.8333C13.1667 11.4776 13.689 12 14.3333 12Z" fill="#CED0DE"/>
<path d="M9.66667 12C10.311 12 10.8333 11.4776 10.8333 10.8333C10.8333 10.189 10.311 9.66663 9.66667 9.66663C9.02233 9.66663 8.5 10.189 8.5 10.8333C8.5 11.4776 9.02233 12 9.66667 12Z" fill="#CED0DE"/>
<path d="M4.99999 12C5.64433 12 6.16666 11.4776 6.16666 10.8333C6.16666 10.189 5.64433 9.66663 4.99999 9.66663C4.35566 9.66663 3.83333 10.189 3.83333 10.8333C3.83333 11.4776 4.35566 12 4.99999 12Z" fill="#CED0DE"/>
<path d="M19 16.0716C19.6443 16.0716 20.1667 15.5493 20.1667 14.9049C20.1667 14.2606 19.6443 13.7383 19 13.7383C18.3557 13.7383 17.8333 14.2606 17.8333 14.9049C17.8333 15.5493 18.3557 16.0716 19 16.0716Z" fill="#CED0DE"/>
<path d="M14.3333 16.0716C14.9777 16.0716 15.5 15.5493 15.5 14.9049C15.5 14.2606 14.9777 13.7383 14.3333 13.7383C13.689 13.7383 13.1667 14.2606 13.1667 14.9049C13.1667 15.5493 13.689 16.0716 14.3333 16.0716Z" fill="#CED0DE"/>
<path d="M9.66667 16.0716C10.311 16.0716 10.8333 15.5493 10.8333 14.9049C10.8333 14.2606 10.311 13.7383 9.66667 13.7383C9.02233 13.7383 8.5 14.2606 8.5 14.9049C8.5 15.5493 9.02233 16.0716 9.66667 16.0716Z" fill="#CED0DE"/>
<path d="M4.99999 16.0716C5.64433 16.0716 6.16666 15.5493 6.16666 14.9049C6.16666 14.2606 5.64433 13.7383 4.99999 13.7383C4.35566 13.7383 3.83333 14.2606 3.83333 14.9049C3.83333 15.5493 4.35566 16.0716 4.99999 16.0716Z" fill="#CED0DE"/>
<path d="M14.3333 20.1317C14.9777 20.1317 15.5 19.6093 15.5 18.965C15.5 18.3207 14.9777 17.7983 14.3333 17.7983C13.689 17.7983 13.1667 18.3207 13.1667 18.965C13.1667 19.6093 13.689 20.1317 14.3333 20.1317Z" fill="#CED0DE"/>
<path d="M9.66667 20.1317C10.311 20.1317 10.8333 19.6093 10.8333 18.965C10.8333 18.3207 10.311 17.7983 9.66667 17.7983C9.02233 17.7983 8.5 18.3207 8.5 18.965C8.5 19.6093 9.02233 20.1317 9.66667 20.1317Z" fill="#CED0DE"/>
<path d="M4.99999 20.1317C5.64433 20.1317 6.16666 19.6093 6.16666 18.965C6.16666 18.3207 5.64433 17.7983 4.99999 17.7983C4.35566 17.7983 3.83333 18.3207 3.83333 18.965C3.83333 19.6093 4.35566 20.1317 4.99999 20.1317Z" fill="#CED0DE"/>
</svg>
