<svg width="24" height="24" viewBox="0 0 24 24" fill="none" xmlns="http://www.w3.org/2000/svg">
<path d="M15.2433 22.7917H8.75667V15.85C8.75667 15.2083 9.28167 14.6833 9.92333 14.6833H14.0767C14.7183 14.6833 15.2433 15.2083 15.2433 15.85V22.7917V22.7917Z" stroke="#3F8CFC" stroke-width="2" stroke-linecap="round" stroke-linejoin="round"/>
<path d="M22.7917 11.2883V19.1167C22.7917 21.1467 21.2283 22.7917 19.2917 22.7917H4.70833C2.77166 22.7917 1.20833 21.1467 1.20833 19.1167V11.2883C1.20833 10.1917 1.66333 9.16501 2.46833 8.46501L9.76 2.06001C11.055 0.916681 12.945 0.916681 14.24 2.06001L21.5317 8.46501C22.3367 9.16501 22.7917 10.1917 22.7917 11.2883Z" stroke="#3F8CFC" stroke-width="2" stroke-linecap="round" stroke-linejoin="round"/>
</svg>
