<svg width="24" height="20" viewBox="0 0 24 20" fill="none" xmlns="http://www.w3.org/2000/svg">
<path d="M14.4033 15.6467C14.1117 15.7984 13.7967 15.9151 13.4467 15.9617C13.3067 15.9851 13.155 15.9967 13.015 15.9967H8.40668" stroke="#CED0DE" stroke-width="2" stroke-linecap="round" stroke-linejoin="round"/>
<path d="M3.61166 15.9851C2.27 15.9034 1.20833 14.9351 1.20833 13.7684V3.81677C1.20833 2.59177 2.375 1.6001 3.79833 1.6001H13.0033C14.4266 1.6001 15.5933 2.59177 15.5933 3.81677V13.5818" stroke="#CED0DE" stroke-width="2" stroke-linecap="round" stroke-linejoin="round"/>
<path d="M15.5933 13.8734V6.67508C15.5933 5.85841 16.3983 5.20508 17.39 5.20508H18.3583C18.8833 5.20508 19.3733 5.39175 19.7233 5.71841L22.3483 8.22675C22.6283 8.49508 22.78 8.83341 22.78 9.18341V14.5267C22.78 15.3434 21.975 15.9967 20.9833 15.9967H19.1867" stroke="#CED0DE" stroke-width="2" stroke-linecap="round" stroke-linejoin="round"/>
<path d="M22.5 9.125L16.0833 9.125" stroke="#CED0DE" stroke-width="2" stroke-linecap="round" stroke-linejoin="round"/>
<path d="M6.00332 18.4C7.33064 18.4 8.40668 17.324 8.40668 15.9967C8.40668 14.6694 7.33064 13.5934 6.00332 13.5934C4.67599 13.5934 3.59999 14.6694 3.59999 15.9967C3.59999 17.324 4.67599 18.4 6.00332 18.4Z" stroke="#CED0DE" stroke-width="2" stroke-linecap="round" stroke-linejoin="round"/>
<path d="M16.795 18.4C18.1223 18.4 19.1983 17.324 19.1983 15.9967C19.1983 14.6694 18.1223 13.5934 16.795 13.5934C15.4677 13.5934 14.3917 14.6694 14.3917 15.9967C14.3917 17.324 15.4677 18.4 16.795 18.4Z" stroke="#CED0DE" stroke-width="2" stroke-linecap="round" stroke-linejoin="round"/>
</svg>
