<svg width="24" height="24" viewBox="0 0 24 24" fill="none" xmlns="http://www.w3.org/2000/svg">
<path opacity="0.4" d="M13.24 22C13.72 22 14.1 21.62 14.1 21.14L14.1 2.85C14.1 2.38 13.72 1.99 13.24 1.99C7.35 1.99 3.24 6.1 3.24 11.99C3.24 17.88 7.36 22 13.24 22Z" fill="#FC1441"/>
<path d="M8.1 12.46L10.94 15.31C11.23 15.6 11.71 15.6 12 15.31C12.29 15.02 12.29 14.54 12 14.25L10.44 12.69L20.01 12.69C20.42 12.69 20.76 12.35 20.76 11.94C20.76 11.53 20.42 11.19 20.01 11.19L10.44 11.19L12 9.61996C12.29 9.32996 12.29 8.84996 12 8.55996C11.85 8.40996 11.66 8.33996 11.47 8.33996C11.28 8.33996 11.09 8.40996 10.94 8.55996L8.1 11.41C7.8 11.7 7.8 12.17 8.1 12.46Z" fill="#FC1441"/>
</svg>
