<svg width="372" height="200" viewBox="0 0 372 200" fill="none" xmlns="http://www.w3.org/2000/svg">
<path d="M334.213 175.362C334.653 167.251 325.588 156.629 321 154L364.492 154.376C368.896 154.676 371.098 156.754 371.649 157.755C371.829 161.197 371.934 168.222 371.894 168.036C372.134 169.848 371.892 175.362 371.892 175.362H334.213Z" fill="#3F8CFC"/>
<path d="M68.25 178L69.15 154.45H44.1L36.75 178H8.1L46.65 70H96.15L96.75 178H68.25ZM62.1 96.25L50.25 134.35H69.9L71.55 96.25H62.1Z" fill="#3F8CFC"/>
<path d="M178.25 178H109.85L128.9 70H155.9L141.05 154.6H182.45L178.25 178Z" fill="#3F8CFC"/>
<path d="M200.138 170.554H196.092L194.766 178H188.646L192.964 153.52H203.334C205.895 153.52 207.72 154.109 208.808 155.288C209.601 156.195 209.998 157.351 209.998 158.756C209.998 159.232 209.953 159.731 209.862 160.252L209.182 164.094C208.842 165.975 207.845 167.528 206.19 168.752C204.535 169.953 202.518 170.554 200.138 170.554ZM201.192 158.824H198.132L197.01 165.25H200.036C201.895 165.25 202.971 164.423 203.266 162.768L203.504 161.374C203.549 161.17 203.572 160.898 203.572 160.558C203.572 160.218 203.402 159.844 203.062 159.436C202.722 159.028 202.099 158.824 201.192 158.824ZM233.516 153.52L229.232 178H223.078L224.642 169.16H218.012L216.482 178H210.328L214.646 153.52H220.766L218.93 163.856H225.56L227.396 153.52H233.516ZM246.139 178L246.343 172.662H240.665L238.999 178H232.505L241.243 153.52H252.463L252.599 178H246.139ZM244.745 159.47L242.059 168.106H246.513L246.887 159.47H244.745ZM271.32 178H255.816L260.134 153.52H266.254L262.888 172.696H272.272L271.32 178ZM287.27 153.282C292.733 153.282 295.464 155.515 295.464 159.98C295.464 160.728 295.385 161.533 295.226 162.394L294.036 169.194C293.492 172.345 292.314 174.679 290.5 176.198C288.687 177.717 286.137 178.476 282.85 178.476C279.564 178.476 277.274 177.717 275.982 176.198C275.098 175.155 274.656 173.716 274.656 171.88C274.656 171.064 274.747 170.169 274.928 169.194L276.118 162.394C277.184 156.319 280.901 153.282 287.27 153.282ZM283.768 173.206C284.902 173.206 285.808 172.911 286.488 172.322C287.168 171.733 287.644 170.645 287.916 169.058L289.072 162.53C289.14 162.077 289.174 161.669 289.174 161.306C289.174 159.47 288.245 158.552 286.386 158.552C284.052 158.597 282.658 159.923 282.204 162.53L281.048 169.058C280.958 169.625 280.912 170.214 280.912 170.826C280.912 172.413 281.864 173.206 283.768 173.206ZM305.157 178.476C301.938 178.476 299.717 177.728 298.493 176.232C297.654 175.189 297.235 173.761 297.235 171.948C297.235 171.109 297.325 170.191 297.507 169.194L298.697 162.394C299.762 156.319 303.479 153.282 309.849 153.282C312.478 153.282 314.473 153.849 315.833 154.982C317.193 156.093 317.873 157.623 317.873 159.572C317.873 160.365 317.759 161.17 317.533 161.986C317.329 162.802 317.125 163.414 316.921 163.822L316.581 164.434H310.563C311.152 163.618 311.447 162.677 311.447 161.612C311.447 159.572 310.597 158.552 308.897 158.552C306.607 158.552 305.236 159.878 304.783 162.53L303.627 169.058C303.513 169.67 303.457 170.271 303.457 170.86C303.457 172.424 304.375 173.206 306.211 173.206C308.069 173.206 309.259 172.277 309.781 170.418H306.993L307.673 166.644H316.683L316.139 169.568L315.969 170.554C315.017 175.835 311.413 178.476 305.157 178.476Z" fill="#3F8CFC"/>
<path d="M5.82839 182.209H372V192.674H2.39993L5.82839 182.209Z" fill="#3F8CFC"/>
</svg>
