<svg width="24" height="24" viewBox="0 0 24 24" fill="none" xmlns="http://www.w3.org/2000/svg">
<path opacity="0.4" d="M8.55999 3.33997V17.67C8.21999 17.68 7.87999 17.76 7.62999 17.91L5.27999 19.25C3.63999 20.19 2.28999 19.41 2.28999 17.51V7.77997C2.28999 7.14997 2.73999 6.36997 3.29999 6.04997L7.62999 3.56997C7.87999 3.42997 8.21999 3.34997 8.55999 3.33997Z" fill="#F4C212"/>
<path d="M15.73 6.33006V20.6601C15.38 20.6701 15.04 20.6101 14.77 20.4801L9.52 17.8501C9.25 17.7201 8.91 17.6601 8.56 17.6701V3.34006C8.91 3.33006 9.25 3.39006 9.52 3.52006L14.77 6.15006C15.04 6.28006 15.38 6.34006 15.73 6.33006Z" fill="#F4C212"/>
<path opacity="0.4" d="M22 6.48994V16.2199C22 16.8499 21.55 17.6299 20.99 17.9499L16.66 20.4299C16.41 20.5699 16.07 20.6499 15.73 20.6599V6.32994C16.07 6.31994 16.41 6.23994 16.66 6.08994L19.01 4.74994C20.65 3.80994 22 4.58994 22 6.48994Z" fill="#F4C212"/>
</svg>
