<svg width="19" height="19" viewBox="0 0 19 19" fill="none" xmlns="http://www.w3.org/2000/svg">
<path d="M14.2167 18.4869C13.775 18.4869 13.2083 18.3452 12.5 17.9285L10.0083 16.4535C9.75 16.3035 9.25 16.3035 9 16.4535L6.5 17.9285C5.025 18.8035 4.15833 18.4535 3.76667 18.1702C3.38333 17.8869 2.78333 17.1619 3.175 15.4952L3.76667 12.9369C3.83333 12.6702 3.7 12.2119 3.5 12.0119L1.43333 9.94519C0.4 8.91186 0.483334 8.02852 0.625 7.59519C0.766667 7.16186 1.21667 6.39519 2.65 6.15352L5.30833 5.71186C5.55833 5.67019 5.91667 5.40352 6.025 5.17852L7.5 2.23686C8.16667 0.89519 9.04167 0.69519 9.5 0.69519C9.95833 0.69519 10.8333 0.89519 11.5 2.23686L12.9667 5.17019C13.0833 5.39519 13.4417 5.66186 13.6917 5.70352L16.35 6.14519C17.7917 6.38686 18.2417 7.15352 18.375 7.58686C18.5083 8.02019 18.5917 8.90352 17.5667 9.93686L15.5 12.0119C15.3 12.2119 15.175 12.6619 15.2333 12.9369L15.825 15.4952C16.2083 17.1619 15.6167 17.8869 15.2333 18.1702C15.025 18.3202 14.6917 18.4869 14.2167 18.4869Z" fill="#F4C212"/>
</svg>
